Coordinates
version=1
nRows=12
nColumns=24
inDegrees=yes

Units are S.I. units (second, meters, Newtons, ...)
Angles are in degrees.

endheader
time	pelvis_tilt	pelvis_list	pelvis_rotation	pelvis_tx	pelvis_ty	pelvis_tz	hip_flexion_r	hip_adduction_r	hip_rotation_r	knee_angle_r	ankle_angle_r	subtalar_angle_r	mtp_angle_r	hip_flexion_l	hip_adduction_l	hip_rotation_l	knee_angle_l	ankle_angle_l	subtalar_angle_l	mtp_angle_l	lumbar_extension	lumbar_bending	lumbar_rotation
      0.01000000	     51.49919069	    -14.35818647	     -1.75455869	      0.43155228	      1.01994505	     -0.34933247	     28.58741161	      2.35253928	      3.74876612	    -18.87295735	     -2.97646706	     39.49735258	      0.00000000	     21.48349450	    -26.12649370	      9.47719912	    -67.54442079	     25.22036763	     30.54806775	      0.00000000	      0.00000000	      0.00000000	      0.00000000
      0.02000000	     51.49287915	    -14.35290921	     -1.75548409	      0.43157378	      1.01994238	     -0.34937891	     28.58669615	      2.34122735	      3.74682274	    -18.87229849	     -2.98018047	     39.49649250	      0.00000000	     21.48478645	    -26.11348958	      9.47884116	    -67.54163621	     25.22002865	     30.54916558	      0.00000000	      0.00000000	      0.00000000	      0.00000000
      0.03000000	     51.48941608	    -14.34367863	     -1.75473156	      0.43158585	      1.01995643	     -0.34940372	     28.58622224	      2.32879229	      3.74683394	    -18.87167920	     -2.98365521	     39.49581571	      0.00000000	     21.48541328	    -26.10062714	      9.47901827	    -67.54233817	     25.21942420	     30.54995619	      0.00000000	      0.00000000	      0.00000000	      0.00000000
      0.04000000	     51.48824620	    -14.33315761	     -1.75288144	      0.43159256	      1.01997600	     -0.34941922	     28.58580601	      2.31648373	      3.74839946	    -18.87070952	     -2.98724843	     39.49519334	      0.00000000	     21.48601806	    -26.08875144	      9.47805556	    -67.54578741	     25.21835312	     30.55015916	      0.00000000	      0.00000000	      0.00000000	      0.00000000
      0.05000000	     51.48837860	    -14.32393910	     -1.75087922	      0.43160916	      1.01997640	     -0.34943006	     28.58561564	      2.30610616	      3.75087361	    -18.86867193	     -2.99148042	     39.49443731	      0.00000000	     21.48720106	    -26.07943023	      9.47663305	    -67.55076834	     25.21667568	     30.54944939	      0.00000000	      0.00000000	      0.00000000	      0.00000000
      0.06000000	     51.48827268	    -14.31826516	     -1.74975161	      0.43163584	      1.01995098	     -0.34943656	     28.58611361	      2.29958538	      3.75344921	    -18.86472096	     -2.99693166	     39.49333589	      0.00000000	     21.48943181	    -26.07433775	      9.47553139	    -67.55568274	     25.21442133	     30.54758235	      0.00000000	      0.00000000	      0.00000000	      0.00000000
      0.07000000	     51.48617713	    -14.31778715	     -1.75012175	      0.43165170	      1.01992669	     -0.34944125	     28.58770856	      2.29827441	      3.75537171	    -18.85832764	     -3.00405885	     39.49169951	      0.00000000	     21.49307974	    -26.07434646	      9.47519497	    -67.55896830	     25.21181451	     30.54450015	      0.00000000	      0.00000000	      0.00000000	      0.00000000
      0.08000000	     51.48109452	    -14.32268773	     -1.75195261	      0.43164451	      1.01993160	     -0.34944729	     28.59056987	      2.30228437	      3.75623024	    -18.84966789	     -3.01297051	     39.48940696	      0.00000000	     21.49832873	    -26.07910934	      9.47553716	    -67.55976062	     25.20922207	     30.54038089	      0.00000000	      0.00000000	      0.00000000	      0.00000000
      0.09000000	     51.47351323	    -14.33128004	     -1.75469885	      0.43162655	      1.01995880	     -0.34945372	     28.59472392	      2.31030362	      3.75615535	    -18.83967753	     -3.02327228	     39.48643690	      0.00000000	     21.50494774	    -26.08729391	      9.47608027	    -67.55834501	     25.20705823	     30.53562124	      0.00000000	      0.00000000	      0.00000000	      0.00000000
      0.10000000	     51.46514534	    -14.34090792	     -1.75763487	      0.43161735	      1.01997794	     -0.34945638	     28.60012208	      2.32009339	      3.75576102	    -18.82974987	     -3.03409152	     39.48287150	      0.00000000	     21.51219345	    -26.09709448	      9.47625389	    -67.55596155	     25.20567249	     30.53076963	      0.00000000	      0.00000000	      0.00000000	      0.00000000
      0.11000000	     51.45791087	    -14.34935292	     -1.76015174	      0.43162082	      1.01997450	     -0.34945196	     28.60647559	      2.32940184	      3.75582318	    -18.82123708	     -3.04429708	     39.47886830	      0.00000000	     21.51902005	    -26.10673240	      9.47570666	    -67.55403204	     25.20523536	     30.52643714	      0.00000000	      0.00000000	      0.00000000	      0.00000000
      0.12000000	     51.45300096	    -14.35554010	     -1.76194415	      0.43162695	      1.01995938	     -0.34944144	     28.61308666	      2.33677548	      3.75686432	    -18.81495743	     -3.05281737	     39.47460318	      0.00000000	     21.52442034	    -26.11484899	      9.47448638	    -67.55336991	     25.20565910	     30.52320446	      0.00000000	      0.00000000	      0.00000000	      0.00000000
